# xmcd CD database file
#
# Track frame offsets:
#	150
#	23707
#	39550
#	59683
#	82948
#	104193
#	130195
#	152852
#	171805
#	196595
#	215210
#	236771
#	258129
#	277634
#
# Disc length: 4011 seconds
#
# Revision: 0
# Processed by: cddbd v1.5.1PL2 Copyright (c) Steve Scherf et al.
# Submitted via: CDex 1.51
#
DISCID=bf0fa90e
DTITLE=Various Artist - Smooth Jazz Vol. 14
DYEAR=1900
DGENRE=Jazz
TTITLE0=Paul Hardcastle - Smooth Groove
TTITLE1=Chuck Mangione - Feels So Good
TTITLE2=Rick Braun - Magic Moment
TTITLE3=George Howard - Dream Ride
TTITLE4=Roger Smith - Overjoyed
TTITLE5=Norman Brown - Love's Holiday
TTITLE6=Ricardo Scales - For Your Love
TTITLE7=Allen and Allen - Devotion
TTITLE8=George Howard - Quiet as it's Kept
TTITLE9=Kenny G - Midnight Motion
TTITLE10=Paul Hardcastle - Slomotion
TTITLE11=Najee - Sweet Love
TTITLE12=Walter Beasley - Side Show
TTITLE13=Gerald Albright - My, my, my
EXTD=
EXTT0=
EXTT1=
EXTT2=
EXTT3=
EXTT4=
EXTT5=
EXTT6=
EXTT7=
EXTT8=
EXTT9=
EXTT10=
EXTT11=
EXTT12=
EXTT13=
PLAYORDER=
